<?xml version="1.0" standalone="no"?>
<!DOCTYPE svg PUBLIC "-//W3C//DTD SVG 20010904//EN"
 "http://www.w3.org/TR/2001/REC-SVG-20010904/DTD/svg10.dtd">
<svg version="1.0" xmlns="http://www.w3.org/2000/svg"
 width="300.000000pt" height="300.000000pt" viewBox="0 0 300.000000 300.000000"
 preserveAspectRatio="xMidYMid meet">
<metadata>
Created by potrace 1.10, written by Peter Selinger 2001-2011
</metadata>
<g transform="translate(0.000000,300.000000) scale(0.050000,-0.050000)"
fill="#000000" stroke="none">
<path d="M3711 5046 c-55 -55 -191 -273 -191 -306 0 -10 -31 -12 -68 -6 -38 6
-202 -8 -365 -31 -164 -23 -494 -52 -735 -64 -596 -30 -752 -61 -752 -147 0
-58 69 -82 298 -102 l232 -20 5 -60 c10 -118 -41 -256 -101 -272 -47 -13 -54
-9 -54 31 0 66 -48 98 -125 84 -36 -6 -240 -48 -455 -93 -371 -77 -680 -120
-680 -94 0 88 303 486 585 770 208 209 241 250 222 280 -112 172 -731 -450
-977 -982 -174 -377 -180 -698 -14 -756 118 -41 538 143 894 393 174 121 223
143 406 174 202 34 193 48 105 -161 -41 -96 -80 -190 -87 -209 -7 -19 -27 -35
-44 -35 -115 0 -231 -123 -165 -175 51 -40 278 -48 319 -11 21 19 97 52 170
75 204 64 219 171 24 171 l-74 0 47 135 c73 212 189 668 189 746 l0 71 323 25
c177 13 327 20 332 15 5 -5 -30 -75 -79 -155 -97 -160 -117 -172 -298 -175
-215 -4 -319 -85 -216 -168 40 -32 68 -37 173 -27 69 6 125 7 125 3 0 -5 -27
-53 -59 -105 -165 -269 -214 -444 -136 -493 61 -38 99 9 257 317 161 313 166
318 283 339 l75 14 0 -180 c0 -160 -5 -183 -40 -202 -45 -24 -52 -82 -16 -138
18 -31 12 -82 -32 -262 -53 -213 -54 -225 -21 -262 115 -126 257 147 580 1112
142 425 147 436 150 330 2 -60 6 -146 9 -190 4 -44 13 -174 20 -290 66 -1067
329 -1197 639 -314 58 167 154 428 213 580 94 244 104 283 84 335 -22 58 12
90 43 40 17 -27 -20 -493 -68 -861 -71 -541 -56 -760 52 -760 92 0 113 88 129
560 8 237 25 487 37 558 13 70 25 211 27 314 l4 188 256 0 c279 0 334 15 334
91 0 81 -68 92 -750 114 -678 21 -750 15 -750 -63 0 -63 240 -122 498 -122
102 0 106 -2 76 -35 -60 -67 -171 -318 -344 -785 -97 -258 -179 -474 -183
-478 -16 -19 -24 22 -65 328 -67 510 -83 679 -100 1030 -20 421 -50 487 -171
366z m-321 -601 c-24 -63 -50 -131 -57 -150 -25 -75 -53 -31 -53 85 0 66 -2
127 -5 135 -4 13 69 35 138 43 14 1 5 -42 -23 -113z m-274 -180 c-4 -40 -19
-57 -53 -62 l-47 -6 36 61 c45 77 73 80 64 7z m-1846 -485 c-42 -68 -442 -285
-585 -317 l-85 -19 0 102 c0 56 11 131 24 167 l24 66 261 6 c143 3 286 8 317
11 33 2 51 -4 44 -16z"/>
<path d="M1740 2866 c-16 -6 -90 -47 -163 -90 -73 -43 -225 -113 -337 -156
-262 -100 -300 -125 -300 -200 0 -85 57 -93 399 -51 160 19 322 32 360 28 l69
-7 -146 -165 c-182 -206 -518 -514 -922 -846 -454 -373 -488 -416 -349 -451
112 -28 1002 703 1378 1132 l96 110 -15 -70 c-8 -38 -23 -73 -33 -77 -36 -14
-61 -84 -38 -111 15 -19 -1 -101 -62 -304 -101 -335 -112 -421 -68 -507 89
-171 201 27 296 524 36 186 52 235 78 235 35 0 28 -64 -20 -186 -44 -109 31
-454 98 -454 51 0 119 310 119 540 0 111 -3 110 208 130 129 13 137 11 123
-23 -129 -316 -142 -487 -37 -487 33 0 124 161 218 385 69 165 129 235 200
235 8 0 9 -139 3 -308 -12 -322 6 -392 101 -392 97 0 130 1242 35 1312 -90 66
-244 -79 -361 -339 l-77 -170 -122 -20 c-66 -11 -159 -26 -206 -33 l-85 -14 0
141 c0 183 -29 250 -101 236 -53 -11 -53 -10 -38 73 29 154 1 334 -56 360 -70
32 -105 -23 -105 -166 l0 -113 -125 9 c-123 9 -166 22 -123 38 103 37 208 129
208 183 0 46 -39 94 -67 81 -1 0 -16 -6 -33 -12z m1156 -755 c-4 -20 -15 -24
-33 -13 -23 14 -23 25 -1 64 28 50 50 17 34 -51z m-876 -21 c0 -38 -9 -70 -20
-70 -22 0 -28 106 -7 127 23 23 27 15 27 -57z"/>
<path d="M3864 2595 c-42 -42 -61 -45 -260 -40 -272 7 -274 6 -267 -181 5
-139 2 -150 -45 -181 -53 -34 -53 -82 0 -125 21 -17 23 -47 8 -140 -35 -211
-26 -422 20 -468 88 -88 128 -2 165 355 l23 225 127 0 c70 0 144 -9 165 -20
49 -26 90 -9 117 51 50 110 -15 149 -246 149 l-171 0 0 75 0 75 380 0 c440 0
406 25 329 -243 -29 -97 -61 -225 -72 -284 -11 -59 -46 -193 -78 -298 -73
-237 -81 -432 -19 -465 100 -53 158 56 221 415 23 129 67 330 98 445 31 116
67 256 80 312 l24 103 121 12 c67 7 208 13 314 14 527 2 782 41 782 120 0 84
-57 88 -840 61 l-738 -26 -68 52 c-83 64 -112 65 -170 7z"/>
</g>
</svg>
